# xmcd
#
# Track frame offsets: 
#        182
#        14742
#        28830
#        48317
#        62017
#        75997
#        89682
#
# Disc length: 1430 seconds
#
# Revision: 4
# Processed by: cddbd v1.5.2PL0 Copyright (c) Steve Scherf et al.
# Submitted via: ExactAudioCopy v0.99pb4
#
DISCID=54059407
DTITLE=Sweet Box - Everthing Gonna Be Alright (J.S.Bach Remix) [CD Sin
DTITLE=gle]
DYEAR=1997
DGENRE=Dance
TTITLE0=Everything Gonna... (Radio Version)
TTITLE1=Everything Gonna... (Video Version)
TTITLE2=Everything Gonna... (Geo's Big "E" Club Mix)
TTITLE3=Everything Gonna... (Classic Version)
TTITLE4=Suite No. 3 "Air" (Fugue)
TTITLE5=Everything Gonna... (Instrumental)
TTITLE6=Everything Gonna... (Extended Version)
EXTD=
EXTT0=
EXTT1=
EXTT2=
EXTT3=
EXTT4=
EXTT5=
EXTT6=
PLAYORDER=
